<svg width="39" height="39" viewBox="0 0 39 39" fill="none" xmlns="http://www.w3.org/2000/svg">
<g id="Visa">
<g id="Group">
<path id="Vector" d="M17.3175 24.6469H14.6393L16.3131 14.3601H18.9916L17.3175 24.6469ZM12.3862 14.3601L9.83294 21.4355L9.53081 19.9119L9.53108 19.9124L8.62991 15.2863C8.62991 15.2863 8.52094 14.3601 7.35946 14.3601H3.1384L3.08887 14.5343C3.08887 14.5343 4.37968 14.8028 5.89034 15.7101L8.21716 24.6472H11.0076L15.2686 14.3601H12.3862ZM33.4516 24.6469H35.9108L33.7667 14.3598H31.6138C30.6196 14.3598 30.3775 15.1264 30.3775 15.1264L26.3831 24.6469H29.175L29.7333 23.1189H33.138L33.4516 24.6469ZM30.5046 21.0081L31.9118 17.1585L32.7035 21.0081H30.5046ZM26.5925 16.8338L26.9748 14.6248C26.9748 14.6248 25.7954 14.1763 24.5659 14.1763C23.2369 14.1763 20.0807 14.7571 20.0807 17.5817C20.0807 20.2393 23.785 20.2723 23.785 21.6682C23.785 23.0642 20.4624 22.814 19.3658 21.9338L18.9677 24.2435C18.9677 24.2435 20.1635 24.8244 21.9907 24.8244C23.8183 24.8244 26.5755 23.8781 26.5755 21.3025C26.5755 18.6279 22.8379 18.3789 22.8379 17.216C22.8382 16.0529 25.4465 16.2023 26.5925 16.8338Z" fill="#2566AF"/>
</g>
<path id="Vector_2" d="M9.53108 19.9122L8.62991 15.2861C8.62991 15.2861 8.52094 14.3599 7.35946 14.3599H3.1384L3.08887 14.534C3.08887 14.534 5.11768 14.9545 7.06366 16.5298C8.92434 18.0355 9.53108 19.9122 9.53108 19.9122Z" fill="#E6A540"/>
</g>
</svg>
