<svg width="30" height="30" viewBox="0 0 30 30" fill="none" xmlns="http://www.w3.org/2000/svg">
<g id="Mastercard" clip-path="url(#clip0_88_604)">
<path id="Vector" d="M19.0563 22.2887H10.9438V7.70996H19.0563V22.2887Z" fill="#FF5F00"/>
<path id="Vector_2" d="M11.4587 14.9999C11.4575 13.596 11.7757 12.2102 12.3892 10.9474C13.0028 9.68461 13.8956 8.57795 15 7.7112C13.6323 6.63636 11.9898 5.96796 10.2603 5.7824C8.53069 5.59684 6.78381 5.9016 5.21924 6.66185C3.65467 7.42209 2.33554 8.60716 1.4126 10.0816C0.489665 11.5561 0.000149589 13.2605 0 14.9999C0.000333806 16.7392 0.489907 18.4433 1.41278 19.9176C2.33566 21.3918 3.65462 22.5767 5.21897 23.3369C6.78331 24.0971 8.52995 24.402 10.2593 24.2166C11.9887 24.0313 13.6311 23.3632 14.9987 22.2887C13.8947 21.4217 13.0022 20.315 12.3889 19.0522C11.7756 17.7895 11.4576 16.4038 11.4587 14.9999Z" fill="#EB001B"/>
<path id="Vector_3" d="M30 14.9999C29.9999 16.7394 29.5103 18.4438 28.5874 19.9183C27.6645 21.3927 26.3453 22.5778 24.7808 23.3381C23.2162 24.0983 21.4693 24.4031 19.7397 24.2175C18.0102 24.0319 16.3677 23.3635 15 22.2887C17.1562 20.5912 18.5413 17.9574 18.5413 14.9999C18.5413 12.0424 17.1562 9.4087 15 7.7112C16.3677 6.63636 18.0102 5.96796 19.7397 5.7824C21.4693 5.59684 23.2162 5.9016 24.7808 6.66185C26.3453 7.42209 27.6645 8.60716 28.5874 10.0816C29.5103 11.5561 29.9999 13.2605 30 14.9999Z" fill="#F79E1B"/>
</g>
<defs>
<clipPath id="clip0_88_604">
<rect width="30" height="30" fill="white"/>
</clipPath>
</defs>
</svg>
