<svg width="133" height="73" viewBox="0 0 133 73" fill="none" xmlns="http://www.w3.org/2000/svg">
<g id="Group 3">
<line id="Line 3" x1="1" y1="63.5" x2="131" y2="63.5" stroke="white"/>
<line id="Line 4" x1="3.5" y1="68" x2="3.5" y2="73" stroke="white"/>
<line id="Line 6" x1="45.5" y1="68" x2="45.5" y2="73" stroke="white"/>
<line id="Line 8" x1="87.5" y1="68" x2="87.5" y2="73" stroke="white"/>
<line id="Line 5" x1="24.5" y1="68" x2="24.5" y2="73" stroke="white"/>
<line id="Line 7" x1="66.5" y1="68" x2="66.5" y2="73" stroke="white"/>
<line id="Line 9" x1="108.5" y1="68" x2="108.5" y2="73" stroke="white"/>
<line id="Line 10" x1="129.5" y1="68" x2="129.5" y2="73" stroke="white"/>
<g id="Group 2">
<rect id="Rectangle 9" y="23" width="7" height="34" fill="white"/>
<rect id="Rectangle 12" x="63" y="15" width="7" height="42" fill="white"/>
<rect id="Rectangle 10" x="21" y="15" width="7" height="42" fill="white"/>
<rect id="Rectangle 13" x="84" y="7" width="7" height="50" fill="white"/>
<rect id="Rectangle 11" x="42" y="19" width="7" height="38" fill="white"/>
<rect id="Rectangle 14" x="105" y="2" width="7" height="55" fill="white"/>
<rect id="Rectangle 15" x="126" width="7" height="58" fill="white"/>
</g>
</g>
</svg>
