<svg width="147" height="112" viewBox="0 0 147 112" fill="none" xmlns="http://www.w3.org/2000/svg">
<path d="M51.895 72.512L46.063 98H36.127L33.175 83.528L30.223 98H20.287L14.455 72.512H23.059L25.363 88.568L28.819 72.512H37.531L40.987 88.568L43.291 72.512H51.895ZM67.1809 98.252C64.7809 98.252 62.5729 97.688 60.5569 96.56C58.5649 95.432 56.9809 93.872 55.8049 91.88C54.6289 89.888 54.0409 87.644 54.0409 85.148C54.0409 82.652 54.6289 80.408 55.8049 78.416C56.9809 76.424 58.5649 74.876 60.5569 73.772C62.5729 72.644 64.7809 72.08 67.1809 72.08C69.5809 72.08 71.7769 72.644 73.7689 73.772C75.7609 74.876 77.3329 76.424 78.4849 78.416C79.6609 80.408 80.2489 82.652 80.2489 85.148C80.2489 87.644 79.6609 89.888 78.4849 91.88C77.3329 93.872 75.7489 95.432 73.7329 96.56C71.7409 97.688 69.5569 98.252 67.1809 98.252ZM67.1809 90.8C68.7649 90.8 69.9889 90.296 70.8529 89.288C71.7169 88.256 72.1489 86.876 72.1489 85.148C72.1489 83.396 71.7169 82.016 70.8529 81.008C69.9889 79.976 68.7649 79.46 67.1809 79.46C65.5729 79.46 64.3369 79.976 63.4729 81.008C62.6089 82.016 62.1769 83.396 62.1769 85.148C62.1769 86.876 62.6089 88.256 63.4729 89.288C64.3369 90.296 65.5729 90.8 67.1809 90.8ZM95.948 98L91.16 88.856H91.124V98H83.132V72.512H95.012C97.076 72.512 98.84 72.884 100.304 73.628C101.768 74.348 102.86 75.344 103.58 76.616C104.324 77.864 104.696 79.28 104.696 80.864C104.696 82.568 104.216 84.08 103.256 85.4C102.32 86.72 100.964 87.668 99.188 88.244L104.732 98H95.948ZM91.124 83.528H94.292C95.06 83.528 95.636 83.36 96.02 83.024C96.404 82.664 96.596 82.112 96.596 81.368C96.596 80.696 96.392 80.168 95.984 79.784C95.6 79.4 95.036 79.208 94.292 79.208H91.124V83.528ZM122.657 98L115.241 86.948V98H107.249V72.512H115.241V83.24L122.549 72.512H131.585L122.801 84.716L132.161 98H122.657Z" fill="#ffffff"/>
<path d="M29.6875 18.125C29.6875 18.3333 29.6458 18.5208 29.5625 18.6875C29.4792 18.8542 29.4167 19.0417 29.375 19.25C28.9583 19.4167 28.6042 19.5 28.3125 19.5C27.3958 19.5 26.9375 19.0417 26.9375 18.125C26.9375 17.875 27 17.6667 27.125 17.5C27.2917 17.3333 27.4167 17.1458 27.5 16.9375L28.4375 16.875L29.5625 17.5625C29.6458 17.8125 29.6875 18 29.6875 18.125ZM33.4375 22C33.4375 22.2083 33.3958 22.3333 33.3125 22.375C33.2292 22.375 33.2292 22.4792 33.3125 22.6875C33.1042 22.8958 32.9583 23.0208 32.875 23.0625C32.7917 23.0625 32.625 23.0833 32.375 23.125C32.25 23.2083 32.0417 23.25 31.75 23.25C31.6667 23.2917 31.6042 23.3333 31.5625 23.375C31.5625 23.375 31.5208 23.3958 31.4375 23.4375C31.3125 23.2708 31.1875 23.125 31.0625 23C30.9375 22.875 30.7708 22.8125 30.5625 22.8125V21.25C30.8958 21.25 31.125 21.1667 31.25 21C31.375 20.8333 31.625 20.75 32 20.75C32.3333 20.75 32.6042 20.8542 32.8125 21.0625C33.0625 21.2708 33.2708 21.5208 33.4375 21.8125V22ZM25.25 14.875C25.25 15.125 25.1875 15.375 25.0625 15.625C24.9375 15.8333 24.7917 16.0208 24.625 16.1875C24.2917 16.2708 24.0833 16.3125 24 16.3125C23.75 16.3125 23.5 16.2708 23.25 16.1875C23.0417 16.0625 22.8333 15.9583 22.625 15.875C22.625 15.7083 22.6042 15.5625 22.5625 15.4375C22.5208 15.3125 22.5 15.1667 22.5 15C22.5 14.7083 22.6667 14.4375 23 14.1875C23.375 13.8958 23.6875 13.75 23.9375 13.75C24.1875 13.75 24.4167 13.8333 24.625 14C24.8333 14.1667 25.0417 14.2917 25.25 14.375V14.875ZM19.625 14.25C19.4167 14.4167 19.1875 14.5833 18.9375 14.75C18.7292 14.875 18.5208 15.0417 18.3125 15.25L16.8125 15L16.4375 13.4375C16.6875 13.2292 16.9375 13.0625 17.1875 12.9375C17.4375 12.7708 17.7292 12.6875 18.0625 12.6875C18.1875 12.6875 18.375 12.7292 18.625 12.8125C18.8333 13.0208 18.9792 13.2708 19.0625 13.5625C19.1875 13.8125 19.375 14.0417 19.625 14.25ZM13.1875 15.25C13.1875 15.375 13.1458 15.5208 13.0625 15.6875C12.7708 15.8958 12.5625 16.0208 12.4375 16.0625C12.3542 16.1042 12.1458 16.1458 11.8125 16.1875C11.7292 16.1875 11.625 16.2292 11.5 16.3125C11.4167 16.3542 11.3125 16.375 11.1875 16.375H10.8125C10.8125 16.0417 10.7708 15.8333 10.6875 15.75C10.6458 15.625 10.5417 15.4375 10.375 15.1875C10.5833 14.8542 10.8125 14.5625 11.0625 14.3125C11.3125 14.0208 11.6458 13.875 12.0625 13.875C12.2708 13.875 12.4167 13.8958 12.5 13.9375C12.6667 14.1042 12.8125 14.2917 12.9375 14.5C13.1042 14.7083 13.1875 14.9583 13.1875 15.25ZM30.125 40.0625C30.125 40.3958 29.9792 40.6458 29.6875 40.8125C29.4375 40.9792 29.2083 41.1667 29 41.375C28.6667 41.25 28.3333 41.1458 28 41.0625C27.7083 40.9792 27.4583 40.7708 27.25 40.4375V39.875C27.25 39.6667 27.2917 39.4375 27.375 39.1875L28.1875 38.5625L29 38.4375L29.75 39C29.8333 39.3333 29.9583 39.5417 30.125 39.625V40.0625ZM8.0625 19.5C7.64583 19.6667 7.33333 19.7708 7.125 19.8125C6.91667 19.8125 6.60417 19.8542 6.1875 19.9375C5.9375 19.7708 5.70833 19.6042 5.5 19.4375C5.29167 19.2292 5.1875 18.9792 5.1875 18.6875C5.1875 18.3542 5.3125 18.0625 5.5625 17.8125C5.8125 17.5625 6.08333 17.375 6.375 17.25L6.875 17.75C6.95833 17.7083 7.08333 17.6875 7.25 17.6875C7.625 17.6875 7.8125 17.8333 7.8125 18.125C7.85417 18.4167 7.875 18.6667 7.875 18.875C7.875 19.125 7.9375 19.3333 8.0625 19.5ZM33.875 46.1875C33.875 46.3958 33.8542 46.5417 33.8125 46.625C33.7292 46.7083 33.625 46.8125 33.5 46.9375C33.4167 47.0625 33.3125 47.1667 33.1875 47.25C33.1042 47.25 33 47.2708 32.875 47.3125C32.7917 47.3125 32.7083 47.3125 32.625 47.3125C32.4583 47.3125 32.2917 47.2708 32.125 47.1875C32.0417 47.1458 31.875 47.0833 31.625 47C31.375 46.875 31.25 46.7292 31.25 46.5625C31.125 46.3125 31.0625 46.1458 31.0625 46.0625C31.0625 45.8125 31.125 45.625 31.25 45.5C31.4167 45.3333 31.5 45.1458 31.5 44.9375C31.7083 44.8542 31.8958 44.8125 32.0625 44.8125C32.2708 44.7708 32.4792 44.6875 32.6875 44.5625C32.9792 44.7708 33.25 45 33.5 45.25C33.75 45.5 33.875 45.8125 33.875 46.1875ZM23.3125 36.75C23.3125 36.9167 23.2917 37.0833 23.25 37.25C23.2083 37.4167 23.1875 37.5833 23.1875 37.75C22.9792 37.8333 22.7708 37.9583 22.5625 38.125C22.3542 38.25 22.1458 38.3125 21.9375 38.3125C21.7292 38.3125 21.5208 38.2708 21.3125 38.1875C21.1042 38.0625 20.8958 37.9583 20.6875 37.875L20.875 37.5625C20.7917 37.4792 20.7083 37.3958 20.625 37.3125C20.5833 37.1875 20.5625 37.0625 20.5625 36.9375C20.5625 36.7708 20.5833 36.625 20.625 36.5C20.6667 36.3333 20.7083 36.1667 20.75 36C21.1667 35.7083 21.5833 35.5625 22 35.5625C22.25 35.5625 22.5 35.6458 22.75 35.8125C22.8333 36.0208 22.9375 36.1667 23.0625 36.25C23.2292 36.2917 23.3125 36.4583 23.3125 36.75ZM16.5 35.125C16.4167 35.5833 16.25 35.9792 16 36.3125C15.6667 36.4375 15.3542 36.5 15.0625 36.5C14.8125 36.5 14.4792 36.4167 14.0625 36.25C13.8958 35.9583 13.8125 35.6458 13.8125 35.3125C13.8125 34.8125 13.9167 34.4375 14.125 34.1875C14.25 34.1458 14.375 34.1042 14.5 34.0625C14.625 34.0208 14.75 34 14.875 34H15.1875C15.5625 34.25 15.8125 34.3958 15.9375 34.4375C16.0625 34.4375 16.25 34.6667 16.5 35.125ZM6.5625 25.1875C6.52083 25.3542 6.5 25.5833 6.5 25.875C6.5 26.2083 6.35417 26.4792 6.0625 26.6875C5.8125 26.8542 5.54167 26.9375 5.25 26.9375C4.875 26.9375 4.54167 26.8125 4.25 26.5625C4 26.2708 3.875 25.9375 3.875 25.5625C3.875 25.1875 3.95833 24.9583 4.125 24.875C4.33333 24.7917 4.54167 24.625 4.75 24.375C5.125 24.4167 5.4375 24.5208 5.6875 24.6875C5.9375 24.8125 6.22917 24.9792 6.5625 25.1875ZM32.625 53.375C32.5833 53.5833 32.5208 53.8125 32.4375 54.0625C32.3958 54.2708 32.375 54.4792 32.375 54.6875C32.1667 54.6875 31.9792 54.7292 31.8125 54.8125C31.6458 54.8542 31.4583 54.875 31.25 54.875C31.1667 54.875 31 54.7917 30.75 54.625C30.625 54.625 30.4792 54.6667 30.3125 54.75C30.1458 54.1667 29.8958 53.7708 29.5625 53.5625L30.25 52.25C30.4167 52.3333 30.5417 52.375 30.625 52.375C30.7083 52.375 30.7917 52.3333 30.875 52.25C30.9583 52.1667 31.0417 52.0833 31.125 52C31.2917 52.1667 31.4375 52.2917 31.5625 52.375C31.6458 52.3333 31.7708 52.3125 31.9375 52.3125C32.1042 52.5208 32.2292 52.7083 32.3125 52.875C32.4375 53 32.5417 53.1667 32.625 53.375ZM9.625 32.3125C9.625 32.6875 9.5 32.9792 9.25 33.1875C9.04167 33.3958 8.77083 33.5625 8.4375 33.6875C7.89583 33.4792 7.52083 33.2708 7.3125 33.0625C7.14583 32.7292 7.0625 32.4583 7.0625 32.25C7.0625 32.0417 7.10417 31.8333 7.1875 31.625C7.3125 31.4167 7.375 31.2083 7.375 31C7.45833 31 7.54167 31.0208 7.625 31.0625C7.75 31.0625 7.85417 31.0625 7.9375 31.0625C8.0625 31.0625 8.1875 31.0625 8.3125 31.0625C8.4375 31.0208 8.54167 31 8.625 31C8.83333 31.125 8.97917 31.2292 9.0625 31.3125C9.14583 31.3958 9.33333 31.4792 9.625 31.5625V32.3125ZM27.375 58.25C27.375 58.7083 27.2292 59.0417 26.9375 59.25C26.6875 59.4583 26.3958 59.625 26.0625 59.75C25.8542 59.7083 25.6667 59.6458 25.5 59.5625C25.375 59.4792 25.2083 59.4167 25 59.375C24.875 59.1667 24.75 59 24.625 58.875C24.5417 58.7083 24.4583 58.5208 24.375 58.3125C24.4583 58.1042 24.5417 57.9167 24.625 57.75C24.75 57.5833 24.8542 57.3958 24.9375 57.1875C25.1458 57.1042 25.3333 57.0417 25.5 57C25.6667 56.9167 25.8542 56.875 26.0625 56.875C26.1875 56.875 26.375 56.9167 26.625 57C26.7917 57.2083 26.9583 57.3958 27.125 57.5625C27.2917 57.7292 27.375 57.9583 27.375 58.25ZM19.8125 60C19.8125 60.3333 19.6875 60.625 19.4375 60.875C19.1875 61.1667 18.8958 61.3125 18.5625 61.3125C18.3542 61.3125 18.1458 61.2708 17.9375 61.1875C17.7292 61.1458 17.5208 61.125 17.3125 61.125C17.2292 60.9167 17.1458 60.7083 17.0625 60.5C17.0208 60.2917 17 60.0833 17 59.875V59.3125C17.2917 59.1458 17.5625 59.0417 17.8125 59C18.1042 58.9583 18.375 58.8542 18.625 58.6875L19.6875 59.5C19.7708 59.75 19.8125 59.9167 19.8125 60ZM12.75 58.8125C12.4167 59.7292 11.8542 60.1875 11.0625 60.1875H10.75C10.5 60.0208 10.3333 59.8542 10.25 59.6875C10.1667 59.4792 10.0208 59.2708 9.8125 59.0625C9.9375 58.6875 10 58.3542 10 58.0625C10.2917 57.7708 10.5833 57.625 10.875 57.625C11.0833 57.625 11.2708 57.6458 11.4375 57.6875C11.6458 57.7292 11.8542 57.75 12.0625 57.75L12.75 58.8125ZM6.4375 56.375C6.22917 56.5417 6 56.7083 5.75 56.875C5.54167 57.0417 5.29167 57.125 5 57.125C4.875 57.125 4.75 57.1042 4.625 57.0625C4.5 57.0208 4.39583 57 4.3125 57C3.9375 56.6667 3.75 56.4375 3.75 56.3125C3.75 56.1458 3.64583 55.9583 3.4375 55.75C3.6875 55.4583 3.89583 55.1667 4.0625 54.875C4.27083 54.5833 4.60417 54.4375 5.0625 54.4375C5.3125 54.4375 5.54167 54.5208 5.75 54.6875C5.95833 54.8125 6.16667 54.9167 6.375 55C6.41667 55.2083 6.4375 55.4375 6.4375 55.6875C6.4375 55.8958 6.4375 56.125 6.4375 56.375ZM80.5 22.375C80.2917 22.7083 80.1042 22.9792 79.9375 23.1875C79.8125 23.3542 79.6042 23.5833 79.3125 23.875H78.9375C78.7708 23.875 78.625 23.875 78.5 23.875C78.375 23.8333 78.25 23.8333 78.125 23.875C78.0417 23.625 77.8958 23.4375 77.6875 23.3125C77.4792 23.1458 77.375 22.9167 77.375 22.625C77.375 22.1667 77.4792 21.8958 77.6875 21.8125C77.9375 21.7292 78.2292 21.6458 78.5625 21.5625C78.8125 21.4792 79.0208 21.4375 79.1875 21.4375C79.2708 21.4375 79.4583 21.5833 79.75 21.875C80.0833 22.125 80.3333 22.2917 80.5 22.375ZM75.625 18.1875C75.625 18.4375 75.5208 18.6875 75.3125 18.9375C75.1458 19.1458 75.0208 19.375 74.9375 19.625C74.5208 19.5417 74.0833 19.4583 73.625 19.375C73.1667 19.25 72.9375 18.8958 72.9375 18.3125C72.9375 18.1458 72.9583 18 73 17.875C73.0833 17.7083 73.125 17.5417 73.125 17.375C73.5417 17.0833 73.9583 16.9375 74.375 16.9375C74.5833 16.9375 74.7708 17 74.9375 17.125C75.1458 17.2083 75.3542 17.3125 75.5625 17.4375C75.5625 17.5625 75.5625 17.6875 75.5625 17.8125C75.6042 17.9375 75.625 18.0625 75.625 18.1875ZM70.25 14.25C70.2083 14.4583 70.1458 14.6667 70.0625 14.875C70.0208 15.0833 69.875 15.2292 69.625 15.3125C69.625 15.8958 69.3333 16.1875 68.75 16.1875C68.5 16.1875 68.2292 16.125 67.9375 16C67.8542 15.7917 67.75 15.6042 67.625 15.4375C67.5 15.2292 67.4375 15.0208 67.4375 14.8125C67.4375 14.6458 67.4792 14.4792 67.5625 14.3125L68.25 13.75H68.625C68.9167 13.75 69.2292 13.875 69.5625 14.125L70.25 14.25ZM83.4375 29.5625C83.1875 30.0208 82.7917 30.25 82.25 30.25C81.9167 30.25 81.6458 30.2083 81.4375 30.125C81.2708 30 81.0625 29.8333 80.8125 29.625V28.8125C80.8125 28.6042 80.8333 28.4375 80.875 28.3125C81.0833 28.1875 81.2708 28.0625 81.4375 27.9375C81.6458 27.7708 81.875 27.6875 82.125 27.6875C82.2083 27.6875 82.375 27.7292 82.625 27.8125C82.9583 28.2292 83.125 28.5208 83.125 28.6875C83.125 28.8542 83.2292 29.1458 83.4375 29.5625ZM63.0625 14.0625C63.0625 14.4375 62.8542 14.7083 62.4375 14.875C62.0625 15 61.7292 15.0833 61.4375 15.125C61.1875 14.9167 60.9792 14.75 60.8125 14.625C60.6875 14.5 60.4583 14.3958 60.125 14.3125C60.2083 14.1875 60.2708 14.0625 60.3125 13.9375C60.3958 13.7708 60.4375 13.625 60.4375 13.5C60.4375 13.2917 60.625 13.0833 61 12.875C61.4167 12.6667 61.6875 12.4583 61.8125 12.25C62.0208 12.4583 62.2083 12.6458 62.375 12.8125C62.5417 12.9375 62.7292 13.0625 62.9375 13.1875C62.9375 13.3542 62.9583 13.5 63 13.625C63.0417 13.75 63.0625 13.8958 63.0625 14.0625ZM84.625 36.3125C84.2917 36.9375 83.7708 37.25 83.0625 37.25C82.9792 37.25 82.875 37.25 82.75 37.25C82.625 37.2083 82.5208 37.1875 82.4375 37.1875C82.3125 36.9792 82.1875 36.7708 82.0625 36.5625C81.9375 36.3542 81.875 36.1458 81.875 35.9375C81.875 35.6875 81.9583 35.3958 82.125 35.0625C82.3333 34.8958 82.5625 34.8125 82.8125 34.8125C83.0625 34.8125 83.2917 34.75 83.5 34.625C83.7083 34.8333 84.0208 34.9792 84.4375 35.0625L84.625 36.3125ZM84 43.875C84 44 83.9583 44.1875 83.875 44.4375C83.5417 44.7708 83.1458 44.9375 82.6875 44.9375C82.5208 44.9375 82.3542 44.9167 82.1875 44.875C82.0625 44.8333 81.9167 44.7917 81.75 44.75C81.6667 44.5833 81.5833 44.4375 81.5 44.3125C81.4583 44.1458 81.4375 43.9583 81.4375 43.75C81.4375 43.625 81.4375 43.5208 81.4375 43.4375C81.4792 43.3125 81.5 43.1875 81.5 43.0625C81.625 42.9792 81.75 42.9167 81.875 42.875C82.0417 42.8333 82.1458 42.7083 82.1875 42.5C82.3542 42.4167 82.5208 42.375 82.6875 42.375C82.8958 42.375 83.0625 42.4375 83.1875 42.5625C83.3125 42.6875 83.4792 42.7708 83.6875 42.8125C83.7708 42.9792 83.8333 43.1458 83.875 43.3125C83.9583 43.4792 84 43.6667 84 43.875ZM55.625 16.6875C55.3333 16.8542 55.0833 17.0208 54.875 17.1875C54.7083 17.3542 54.4583 17.4375 54.125 17.4375H53.75C53.625 17.3125 53.5 17.1875 53.375 17.0625C53.25 16.9375 53.1458 16.7917 53.0625 16.625C53.0208 16.4583 52.9792 16.3333 52.9375 16.25C52.9375 16.125 52.9375 16.0208 52.9375 15.9375C52.9375 15.7708 52.9792 15.6458 53.0625 15.5625C53.1458 15.4375 53.1875 15.2917 53.1875 15.125C53.5208 14.9583 53.7917 14.875 54 14.875C54.2917 14.875 54.5417 14.9375 54.75 15.0625C55 15.1875 55.2292 15.3125 55.4375 15.4375V15.8125C55.4375 15.9792 55.4583 16.1458 55.5 16.3125C55.5417 16.4375 55.5833 16.5625 55.625 16.6875ZM80.625 51C80.5 51.9167 80.0208 52.375 79.1875 52.375C78.7708 52.375 78.5 52.2708 78.375 52.0625C78.25 51.8125 78.1042 51.5417 77.9375 51.25C78.0208 50.9167 78.1667 50.6042 78.375 50.3125C78.625 50.0208 78.9375 49.875 79.3125 49.875C79.5208 49.875 79.7917 49.9583 80.125 50.125C80.125 50.375 80.1667 50.5417 80.25 50.625C80.375 50.6667 80.5 50.7917 80.625 51ZM49.3125 20.125C49.3125 20.5833 49.1458 20.9375 48.8125 21.1875C48.4792 21.4375 48.1042 21.5625 47.6875 21.5625C47.4375 21.5625 47.1875 21.4167 46.9375 21.125C46.6875 20.8333 46.5625 20.5833 46.5625 20.375C46.5625 20.0833 46.625 19.8333 46.75 19.625C46.9167 19.4167 47.1042 19.2292 47.3125 19.0625L47.8125 19C48.1458 19.0833 48.4792 19.2083 48.8125 19.375C49.1458 19.5 49.3125 19.75 49.3125 20.125ZM75.125 57.125V57.75C74.9167 57.8333 74.6875 57.8958 74.4375 57.9375C74.2292 57.9792 74 58 73.75 58C73.4583 58 73.1875 57.9167 72.9375 57.75C72.7292 57.5833 72.5208 57.4167 72.3125 57.25C72.4792 56.875 72.6667 56.5208 72.875 56.1875C73.125 55.8542 73.4792 55.6875 73.9375 55.6875C74.2708 55.6875 74.5417 55.8542 74.75 56.1875C75 56.5208 75.125 56.8333 75.125 57.125ZM44.875 26.8125C44.875 26.9375 44.8542 27.0625 44.8125 27.1875C44.8125 27.3125 44.8125 27.4375 44.8125 27.5625C44.6042 27.6875 44.375 27.8125 44.125 27.9375C43.875 28.0208 43.625 28.0625 43.375 28.0625C43.1667 28.0625 42.9375 28.0208 42.6875 27.9375C42.6042 27.7292 42.5208 27.5833 42.4375 27.5C42.3542 27.4167 42.25 27.2708 42.125 27.0625C42.2083 26.5625 42.3542 26.1458 42.5625 25.8125C42.7708 25.7292 42.9792 25.6667 43.1875 25.625C43.3958 25.5833 43.6042 25.5625 43.8125 25.5625H44.375C44.5 25.7708 44.6042 25.9792 44.6875 26.1875C44.8125 26.3542 44.875 26.5625 44.875 26.8125ZM43 33.9375C43 34.5625 42.875 35.0833 42.625 35.5C42.4167 35.9167 41.9583 36.125 41.25 36.125C41.0833 35.9583 40.875 35.8125 40.625 35.6875C40.4167 35.5208 40.3125 35.3125 40.3125 35.0625C40.3125 34.8958 40.3333 34.75 40.375 34.625C40.4167 34.5 40.4375 34.375 40.4375 34.25C40.6458 34.125 40.8542 33.9583 41.0625 33.75C41.2708 33.5417 41.4792 33.4375 41.6875 33.4375C41.8958 33.4375 42.0625 33.5208 42.1875 33.6875C42.3125 33.8542 42.5833 33.9375 43 33.9375ZM67.4375 60.3125C67.4375 60.6042 67.3958 60.8125 67.3125 60.9375C67.1458 61.1458 66.9375 61.2708 66.6875 61.3125C66.4792 61.3958 66.2708 61.4792 66.0625 61.5625C65.8542 61.3958 65.6667 61.2708 65.5 61.1875C65.375 61.1458 65.2083 61.0833 65 61C65 60.875 64.9792 60.75 64.9375 60.625C64.9375 60.5417 64.9375 60.4375 64.9375 60.3125C64.9375 60.1875 64.9792 60 65.0625 59.75C65.1458 59.625 65.2917 59.4792 65.5 59.3125C65.7083 59.1042 65.8958 59 66.0625 59C66.3958 59 66.5833 59.0417 66.625 59.125C66.7083 59.2083 66.875 59.2708 67.125 59.3125C67.3333 59.6458 67.4375 59.9792 67.4375 60.3125ZM43.25 42.9375V43.1875C43.0417 43.4792 42.875 43.7292 42.75 43.9375C42.6667 44.1458 42.4167 44.25 42 44.25C41.5 44.25 41.0625 44.0625 40.6875 43.6875C40.6042 43.3542 40.5625 43.0625 40.5625 42.8125C40.5625 42.5625 40.625 42.3542 40.75 42.1875C40.9167 42.0208 41.0625 41.8333 41.1875 41.625C41.3542 41.7083 41.5 41.7292 41.625 41.6875C41.7917 41.6458 41.9792 41.6458 42.1875 41.6875C42.3958 41.9375 42.625 42.0833 42.875 42.125C43.125 42.125 43.25 42.3958 43.25 42.9375ZM59.8125 60.625C59.8125 60.9583 59.6875 61.2292 59.4375 61.4375C59.1875 61.6875 58.8958 61.8125 58.5625 61.8125C58.1875 61.8125 57.9167 61.7292 57.75 61.5625C57.5833 61.4375 57.4583 61.2708 57.375 61.0625C57.2917 60.8542 57.2292 60.625 57.1875 60.375C57.1458 60.125 57.0417 59.8958 56.875 59.6875C57.125 59.6458 57.3125 59.6042 57.4375 59.5625C57.5625 59.5208 57.6667 59.4792 57.75 59.4375C57.8333 59.3958 57.8958 59.3542 57.9375 59.3125C58.0208 59.2292 58.1667 59.1458 58.375 59.0625C58.75 59.1458 59.0833 59.3333 59.375 59.625C59.6667 59.875 59.8125 60.2083 59.8125 60.625ZM46.0625 50.9375C46.0625 51.1458 46.0208 51.3125 45.9375 51.4375C45.8542 51.5625 45.7708 51.7083 45.6875 51.875C45.6042 51.9167 45.4375 51.9792 45.1875 52.0625C44.9792 52.1458 44.8333 52.1875 44.75 52.1875C44.625 52.1875 44.5 52.1667 44.375 52.125C44.2917 52.0417 44.1875 52 44.0625 52C43.9792 52 43.9167 52.0208 43.875 52.0625C43.8333 52.0625 43.7708 52.0625 43.6875 52.0625C43.5625 51.7708 43.4792 51.5833 43.4375 51.5C43.4375 51.375 43.4375 51.1458 43.4375 50.8125L43.3125 50.5625L44 49.5625C44.0417 49.6042 44.1458 49.6667 44.3125 49.75C44.3958 49.75 44.4792 49.75 44.5625 49.75C44.6458 49.7083 44.7292 49.6875 44.8125 49.6875C44.9375 49.6875 45.125 49.7708 45.375 49.9375C45.6667 50.1042 45.8542 50.2292 45.9375 50.3125C46.0208 50.6458 46.0625 50.8542 46.0625 50.9375ZM52.0625 56.8125C52.0625 57.0625 51.9792 57.25 51.8125 57.375C51.6458 57.5 51.5208 57.6667 51.4375 57.875C51.2708 57.9583 51.125 58.0208 51 58.0625C50.875 58.1042 50.7292 58.125 50.5625 58.125C50.3125 58.125 50.0625 58 49.8125 57.75C49.6042 57.5 49.375 57.3333 49.125 57.25C49.2083 56.9167 49.2917 56.6042 49.375 56.3125C49.5 56.0208 49.6875 55.75 49.9375 55.5C50.3125 55.5 50.75 55.6042 51.25 55.8125C51.7917 56.0208 52.0625 56.3542 52.0625 56.8125ZM145.438 15.3125C145.229 15.4375 145.021 15.5833 144.812 15.75C144.604 15.9167 144.354 16 144.062 16C143.896 16 143.729 15.9792 143.562 15.9375C143.396 15.8958 143.229 15.875 143.062 15.875C142.979 15.7083 142.854 15.5 142.688 15.25C142.562 14.9583 142.5 14.7292 142.5 14.5625C142.667 14.2708 142.875 14 143.125 13.75C143.375 13.5 143.688 13.375 144.062 13.375C144.271 13.375 144.542 13.4583 144.875 13.625C145.125 14 145.25 14.2917 145.25 14.5C145.25 14.7083 145.312 14.9792 145.438 15.3125ZM143.375 21.6875C143.208 21.8958 143.062 22.1667 142.938 22.5C142.771 22.625 142.604 22.7292 142.438 22.8125C142.312 22.8958 142.167 23 142 23.125L140.812 22.8125C140.688 22.6875 140.604 22.5417 140.562 22.375C140.521 22.2083 140.438 22.0417 140.312 21.875C140.396 21.7083 140.479 21.5 140.562 21.25C140.604 21.125 140.625 21.0208 140.625 20.9375L141.75 20.25C141.875 20.3333 142 20.3958 142.125 20.4375C142.333 20.5625 142.521 20.6042 142.688 20.5625C142.812 20.7708 142.917 20.9583 143 21.125C143.125 21.2917 143.25 21.4792 143.375 21.6875ZM141.188 29.3125C141.104 29.4792 141.021 29.625 140.938 29.75C140.896 29.8333 140.875 29.9792 140.875 30.1875C140.375 30.4792 139.917 30.625 139.5 30.625C139.208 30.625 138.896 30.5417 138.562 30.375C138.271 29.9583 138.125 29.5625 138.125 29.1875V28.625C138.417 28.4167 138.729 28.25 139.062 28.125C139.396 27.9583 139.729 27.875 140.062 27.875C140.188 27.875 140.312 27.8958 140.438 27.9375C140.562 27.9375 140.667 27.9375 140.75 27.9375C140.833 28.1458 140.917 28.375 141 28.625C141.083 28.8333 141.146 29.0625 141.188 29.3125ZM138.75 36.875C138.75 37.7917 138.312 38.25 137.438 38.25C137.062 38.25 136.708 38.1042 136.375 37.8125C136.042 37.4792 135.875 37.125 135.875 36.75C135.875 36.2083 136.146 35.8958 136.688 35.8125C137.229 35.6875 137.688 35.6042 138.062 35.5625C138.271 35.7708 138.438 35.9583 138.562 36.125C138.688 36.2917 138.75 36.5417 138.75 36.875ZM117.938 16.25C117.938 16.6667 117.75 17.1042 117.375 17.5625C117 17.5208 116.646 17.5208 116.312 17.5625C115.979 17.5625 115.646 17.3958 115.312 17.0625C115.312 16.9375 115.292 16.8125 115.25 16.6875C115.208 16.5208 115.188 16.3542 115.188 16.1875C115.188 15.8958 115.312 15.6042 115.562 15.3125C115.854 15.0208 116.167 14.875 116.5 14.875C116.792 14.875 117.042 14.9792 117.25 15.1875C117.5 15.3542 117.729 15.5208 117.938 15.6875V16.25ZM121.125 23.5C121.125 23.8333 120.938 24.125 120.562 24.375C120.188 24.5833 119.833 24.6875 119.5 24.6875C119.125 24.6875 118.771 24.5208 118.438 24.1875C118.396 23.9792 118.333 23.7917 118.25 23.625C118.208 23.4583 118.146 23.2708 118.062 23.0625C118.229 22.9375 118.354 22.7917 118.438 22.625C118.521 22.4583 118.604 22.2917 118.688 22.125H119C119.25 22.0417 119.458 22 119.625 22C119.875 22.0833 120.104 22.2083 120.312 22.375C120.562 22.5 120.792 22.625 121 22.75C121 22.875 121.021 23 121.062 23.125C121.104 23.25 121.125 23.375 121.125 23.5ZM122.812 30.5625C122.812 30.6875 122.792 30.8125 122.75 30.9375C122.75 31.0625 122.75 31.2083 122.75 31.375C122.542 31.4583 122.396 31.5208 122.312 31.5625C122.229 31.6042 122.146 31.6458 122.062 31.6875C122.021 31.6875 121.938 31.7083 121.812 31.75C121.729 31.7917 121.562 31.8125 121.312 31.8125L120.938 32C120.729 31.75 120.562 31.6042 120.438 31.5625C120.354 31.4792 120.188 31.3333 119.938 31.125L120.125 30.125L120.688 29.375C120.896 29.2917 121.208 29.25 121.625 29.25C122.042 29.25 122.333 29.375 122.5 29.625C122.708 29.875 122.812 30.1875 122.812 30.5625ZM136.688 44.5625C136.562 44.8125 136.438 45.0417 136.312 45.25C136.229 45.4583 136.083 45.6667 135.875 45.875C135.792 45.875 135.688 45.8958 135.562 45.9375C135.479 45.9375 135.396 45.9375 135.312 45.9375C135.021 45.9375 134.792 45.875 134.625 45.75C134.5 45.625 134.333 45.5625 134.125 45.5625C134.042 45.3542 133.938 45.1458 133.812 44.9375C133.729 44.6875 133.688 44.4375 133.688 44.1875C133.688 43.9792 133.771 43.75 133.938 43.5L135.688 43.0625C135.896 43.2708 136.104 43.5 136.312 43.75C136.562 43.9583 136.688 44.2292 136.688 44.5625ZM114.625 23.125C114.625 23.3333 114.583 23.5208 114.5 23.6875C114.417 23.8125 114.333 23.9792 114.25 24.1875C114.083 24.2292 113.917 24.2708 113.75 24.3125C113.625 24.3542 113.479 24.375 113.312 24.375C112.938 24.375 112.604 24.25 112.312 24C112.146 23.7083 111.938 23.4792 111.688 23.3125C111.771 22.9792 111.896 22.625 112.062 22.25C112.271 21.875 112.583 21.6875 113 21.6875C113.292 21.6875 113.521 21.75 113.688 21.875C113.896 22 114.146 22.0625 114.438 22.0625C114.479 22.2292 114.521 22.3958 114.562 22.5625C114.604 22.7292 114.625 22.9167 114.625 23.125ZM124.938 37.75V38C124.729 38.2917 124.479 38.5625 124.188 38.8125C123.896 39.0208 123.562 39.125 123.188 39.125C122.729 39.125 122.354 38.875 122.062 38.375C122.021 38.2083 121.979 38.0833 121.938 38C121.896 37.9167 121.875 37.8333 121.875 37.75C121.875 37.4167 122.042 37.125 122.375 36.875C122.708 36.5833 123.042 36.4375 123.375 36.4375C123.5 36.4375 123.667 36.4792 123.875 36.5625C124.083 36.6042 124.25 36.6667 124.375 36.75C124.5 36.9167 124.625 37.0833 124.75 37.25C124.875 37.375 124.938 37.5417 124.938 37.75ZM112.938 30.8125C112.688 30.8958 112.417 31.0417 112.125 31.25C111.875 31.4167 111.604 31.5 111.312 31.5C111.229 31.5 111.062 31.4583 110.812 31.375C110.562 31.2917 110.375 31.2292 110.25 31.1875C110.125 31.0208 110 30.8542 109.875 30.6875C109.792 30.4792 109.75 30.2708 109.75 30.0625V29.6875C109.958 29.4792 110.208 29.2917 110.5 29.125C110.792 28.9167 111.062 28.8125 111.312 28.8125C111.521 28.8125 111.646 28.875 111.688 29C111.771 29.125 111.854 29.25 111.938 29.375C112.396 29.5417 112.646 29.7292 112.688 29.9375C112.729 30.1042 112.812 30.3958 112.938 30.8125ZM134.188 51.75C134.188 52.0417 134.062 52.3333 133.812 52.625C133.604 52.875 133.333 53 133 53C132.792 53 132.604 52.9583 132.438 52.875C132.271 52.75 132.083 52.6875 131.875 52.6875C131.792 52.4792 131.688 52.2708 131.562 52.0625C131.479 51.8542 131.438 51.625 131.438 51.375C131.438 51.2083 131.458 51.0625 131.5 50.9375C131.583 50.8125 131.667 50.6667 131.75 50.5C132.042 50.375 132.354 50.3125 132.688 50.3125C133.062 50.3125 133.375 50.375 133.625 50.5C133.792 50.75 133.917 50.9375 134 51.0625C134.125 51.1875 134.188 51.4167 134.188 51.75ZM126.688 45C126.688 45.1667 126.667 45.3333 126.625 45.5C126.625 45.625 126.604 45.7917 126.562 46C126.354 46.0833 126.146 46.1458 125.938 46.1875C125.729 46.2292 125.521 46.25 125.312 46.25C125.021 46.25 124.75 46.1875 124.5 46.0625C124.375 45.8542 124.25 45.6875 124.125 45.5625C124.042 45.4375 123.896 45.3125 123.688 45.1875L124 44.125C124.208 44 124.396 43.875 124.562 43.75C124.771 43.625 124.979 43.5625 125.188 43.5625C125.396 43.5625 125.604 43.625 125.812 43.75C126.021 43.875 126.229 43.9792 126.438 44.0625C126.604 44.2708 126.688 44.5833 126.688 45ZM91.9375 14.6875C91.8542 14.8958 91.75 15.0833 91.625 15.25C91.5 15.375 91.3542 15.4583 91.1875 15.5C90.9375 15.75 90.7083 15.875 90.5 15.875C90.2083 15.875 89.8958 15.75 89.5625 15.5C89.2292 15.2083 89.0625 14.9167 89.0625 14.625C89.2292 14.25 89.3542 13.9792 89.4375 13.8125C89.5625 13.6458 89.8125 13.4792 90.1875 13.3125C90.6042 13.3125 91 13.4375 91.375 13.6875C91.75 13.8958 91.9375 14.2292 91.9375 14.6875ZM128.562 52.5C128.271 52.7083 128.021 52.9167 127.812 53.125C127.604 53.2917 127.312 53.375 126.938 53.375C126.562 53.375 126.229 53.2083 125.938 52.875C125.646 52.5417 125.5 52.1875 125.5 51.8125V51.3125C125.792 51.1042 126.042 50.9583 126.25 50.875C126.458 50.7917 126.729 50.75 127.062 50.75C127.271 50.75 127.458 50.7917 127.625 50.875C127.792 50.9167 127.979 50.9375 128.188 50.9375L128.5 51.5C128.5 51.625 128.479 51.75 128.438 51.875C128.438 51.9583 128.417 52.0625 128.375 52.1875C128.458 52.3542 128.521 52.4583 128.562 52.5ZM111.188 37.25C111.188 37.6667 111.042 38.0208 110.75 38.3125C110.5 38.6042 110.167 38.75 109.75 38.75C109.458 38.75 109.208 38.6667 109 38.5C108.792 38.2917 108.583 38.1042 108.375 37.9375V37.625C108.375 37.5 108.354 37.375 108.312 37.25C108.271 37.125 108.25 37 108.25 36.875C108.25 36.7917 108.292 36.625 108.375 36.375C108.958 36.125 109.542 35.9375 110.125 35.8125C110.25 36.0208 110.375 36.1667 110.5 36.25C110.625 36.2917 110.792 36.375 111 36.5C111.125 36.75 111.188 37 111.188 37.25ZM93.3125 21.3125C93.3125 21.5208 93.2708 21.7083 93.1875 21.875C93.1458 22 93.1042 22.1458 93.0625 22.3125C92.8542 22.3542 92.6042 22.5208 92.3125 22.8125C92.0208 22.8125 91.7292 22.7917 91.4375 22.75C91.1458 22.6667 90.8958 22.5208 90.6875 22.3125C90.6875 22.1042 90.6667 21.8958 90.625 21.6875C90.5833 21.4792 90.5417 21.2708 90.5 21.0625C90.75 20.3958 91.2083 20.0625 91.875 20.0625H92.3125C92.4792 20.1458 92.6042 20.25 92.6875 20.375C92.8125 20.4583 92.9792 20.5 93.1875 20.5C93.2708 20.8333 93.3125 21.1042 93.3125 21.3125ZM130.625 59.25C130.625 59.4167 130.5 59.625 130.25 59.875C130.042 60.0833 129.896 60.2917 129.812 60.5C129.396 60.4167 128.958 60.2917 128.5 60.125C128.042 59.9583 127.812 59.6042 127.812 59.0625C127.812 58.7708 127.854 58.6042 127.938 58.5625C128.021 58.4792 128.021 58.25 127.938 57.875C128.188 57.875 128.375 57.875 128.5 57.875C128.667 57.8333 128.854 57.7292 129.062 57.5625C129.438 57.7292 129.792 57.9375 130.125 58.1875C130.458 58.4375 130.625 58.7917 130.625 59.25ZM94.9375 28.6875C94.8958 28.7708 94.875 28.8958 94.875 29.0625C94.875 29.1875 94.8542 29.2917 94.8125 29.375C94.8542 29.4167 94.875 29.4583 94.875 29.5C94.875 29.5417 94.8958 29.6042 94.9375 29.6875C94.7708 29.8958 94.5833 30.0625 94.375 30.1875C94.1667 30.2708 93.9792 30.3958 93.8125 30.5625C93.6042 30.4375 93.375 30.3542 93.125 30.3125C92.9167 30.2292 92.7083 30.1042 92.5 29.9375C92.5 29.7292 92.4375 29.5833 92.3125 29.5C92.2292 29.375 92.1875 29.1458 92.1875 28.8125C92.3125 28.6458 92.4167 28.4792 92.5 28.3125C92.5833 28.1458 92.7292 28 92.9375 27.875C93.1042 27.875 93.25 27.875 93.375 27.875C93.5417 27.8333 93.6875 27.8125 93.8125 27.8125H94.375C94.5 27.9792 94.6042 28.125 94.6875 28.25C94.7708 28.3333 94.8542 28.4792 94.9375 28.6875ZM109.062 44.5625C109.021 44.9792 108.854 45.3333 108.562 45.625C108.312 45.875 107.979 46 107.562 46C107.312 46 107.021 45.9583 106.688 45.875C106.396 45.75 106.25 45.5208 106.25 45.1875C106.25 45.0625 106.229 44.9375 106.188 44.8125C106.146 44.6875 106.125 44.5625 106.125 44.4375C106.333 44.2292 106.562 43.9792 106.812 43.6875C107.062 43.3958 107.354 43.25 107.688 43.25C108.021 43.25 108.312 43.4167 108.562 43.75C108.812 44.0417 108.979 44.3125 109.062 44.5625ZM96.9375 36.5625C96.9375 36.9375 96.8333 37.2083 96.625 37.375C96.4167 37.5417 96.1875 37.7292 95.9375 37.9375C95.6875 37.8958 95.4375 37.875 95.1875 37.875C94.9792 37.875 94.75 37.8333 94.5 37.75C94.4167 37.5417 94.3333 37.3542 94.25 37.1875C94.1667 36.9792 94.125 36.7708 94.125 36.5625C94.125 36.2292 94.2083 36 94.375 35.875C94.5833 35.75 94.7708 35.5625 94.9375 35.3125H96.25C96.375 35.5208 96.5208 35.7292 96.6875 35.9375C96.8542 36.1042 96.9375 36.3125 96.9375 36.5625ZM107.062 52C107.062 52.2083 107.021 52.4792 106.938 52.8125H106.562C106.479 52.8125 106.396 52.875 106.312 53C106.229 53.0833 106.104 53.125 105.938 53.125C105.562 53.125 105.25 53.0417 105 52.875C104.75 52.6667 104.479 52.4583 104.188 52.25C104.271 52.0417 104.333 51.7917 104.375 51.5C104.458 51.1667 104.562 50.9375 104.688 50.8125C104.896 50.7292 105.104 50.6458 105.312 50.5625C105.562 50.4375 105.792 50.375 106 50.375C106.125 50.375 106.229 50.3958 106.312 50.4375C106.438 50.4792 106.542 50.5208 106.625 50.5625C106.917 51.0625 107.062 51.5417 107.062 52ZM98.9375 44.375C98.8542 44.5833 98.7708 44.7708 98.6875 44.9375C98.6042 45.0625 98.5208 45.2083 98.4375 45.375L97.8125 45.8125C97.6458 45.8125 97.5 45.7708 97.375 45.6875C97.2917 45.6042 97.1667 45.5417 97 45.5C96.875 45.5 96.7708 45.5208 96.6875 45.5625C96.5208 45.3542 96.375 45.1458 96.25 44.9375C96.125 44.7292 96.0625 44.5 96.0625 44.25C96.0625 44.125 96.0625 44 96.0625 43.875C96.1042 43.75 96.125 43.625 96.125 43.5C96.3333 43.3333 96.5625 43.2292 96.8125 43.1875C97.0625 43.1042 97.2917 43 97.5 42.875C97.7083 43 97.9167 43.125 98.125 43.25C98.3333 43.375 98.5417 43.5 98.75 43.625C98.7917 43.75 98.8333 43.875 98.875 44C98.9167 44.125 98.9375 44.25 98.9375 44.375ZM101 51.75C101 52 100.833 52.25 100.5 52.5C100.208 52.75 99.9583 52.875 99.75 52.875C99.4167 52.875 99.0625 52.75 98.6875 52.5C98.3125 52.25 98.125 51.9375 98.125 51.5625C98.125 51.3542 98.1667 51.1875 98.25 51.0625C98.3333 50.8958 98.3958 50.7083 98.4375 50.5C98.6875 50.5 98.8542 50.4583 98.9375 50.375C99.0625 50.25 99.2292 50.1875 99.4375 50.1875C99.7292 50.1875 99.9792 50.2708 100.188 50.4375C100.438 50.6042 100.688 50.75 100.938 50.875C100.938 51.0417 100.938 51.1875 100.938 51.3125C100.979 51.4375 101 51.5833 101 51.75ZM104.188 59.1875C104.188 59.3958 104.104 59.6667 103.938 60L103.188 60.5C102.688 60.3333 102.25 60.1667 101.875 60C101.542 59.7917 101.375 59.375 101.375 58.75V58.4375C101.5 58.3125 101.583 58.2292 101.625 58.1875C101.708 58.1458 101.771 58.1042 101.812 58.0625C101.896 58.0208 101.958 57.9583 102 57.875C102.042 57.7917 102.083 57.6458 102.125 57.4375C102.292 57.6042 102.438 57.7292 102.562 57.8125C102.646 57.7708 102.792 57.75 103 57.75H103.25C103.5 58.0833 103.792 58.375 104.125 58.625C104.125 58.7083 104.125 58.8125 104.125 58.9375C104.167 59.0208 104.188 59.1042 104.188 59.1875Z" fill="#ffffff"/>
</svg>
