<svg width="61" height="17" viewBox="0 0 61 17" fill="none" xmlns="http://www.w3.org/2000/svg">
<g id="Group">
<path id="Vector" d="M7.99061 16.5731C7.74155 16.5487 7.4912 16.5321 7.24342 16.4993C5.62192 16.2843 4.17759 15.6603 2.93098 14.5992C1.62783 13.5024 0.69817 12.0274 0.270845 10.3786C0.0329372 9.48894 -0.0491573 8.56483 0.0281984 7.64719C0.156583 6.04559 0.691305 4.59099 1.6651 3.31357C3.02855 1.52453 4.83171 0.431333 7.05726 0.100742C9.4863 -0.26066 11.6791 0.352377 13.5734 1.90647C15.2058 3.2436 16.1905 4.98385 16.4897 7.07139C16.8427 9.53316 16.2098 11.7439 14.6037 13.6472C13.2512 15.2521 11.5071 16.1784 9.4343 16.491C9.17432 16.5308 8.91049 16.5462 8.64859 16.5731H7.99061ZM6.46412 5.59625C5.7946 5.59625 5.12571 5.59625 4.45619 5.59625C4.27773 5.59625 4.21418 5.65017 4.19942 5.82606C4.18305 5.99704 4.18628 6.16934 4.20904 6.33959C4.22682 6.48306 4.29665 6.615 4.40528 6.71037C4.51391 6.80575 4.65377 6.85792 4.79833 6.85698C4.95239 6.86019 5.10645 6.85698 5.26052 6.85698C5.45309 6.85698 5.45309 6.85698 5.45309 7.04635C5.45309 7.76316 5.45309 8.47998 5.45309 9.19679C5.45268 9.48289 5.49002 9.7678 5.56414 10.0441C5.7702 10.8144 6.21955 11.3659 6.99949 11.5957C7.65104 11.7882 8.30516 11.7414 8.94836 11.5315C9.09922 11.482 9.10178 11.482 9.10243 11.6419C9.10243 12.0861 9.09922 12.5303 9.10243 12.9745C9.10113 13.0696 9.11893 13.164 9.15479 13.2521C9.19064 13.3402 9.24382 13.4202 9.31116 13.4874C9.37851 13.5545 9.45866 13.6075 9.54685 13.6431C9.63504 13.6788 9.72949 13.6963 9.82459 13.6947C10.0358 13.6947 10.2476 13.6986 10.4588 13.6947C10.4952 13.6955 10.5315 13.6889 10.5653 13.6753C10.5991 13.6617 10.6298 13.6414 10.6555 13.6156C10.6813 13.5898 10.7015 13.5591 10.715 13.5252C10.7286 13.4914 10.7351 13.4552 10.7342 13.4187C10.7342 13.3661 10.7342 13.3134 10.7342 13.2608C10.7342 11.1887 10.7342 9.11719 10.7342 7.04635C10.7342 6.81012 10.7342 6.81012 10.964 6.81012C11.2323 6.81012 11.5013 6.81012 11.7696 6.81012C11.9686 6.81012 12.0264 6.74914 12.0264 6.54693C12.0264 6.41555 12.0264 6.28353 12.0264 6.15087C12.0219 5.79139 11.7805 5.55195 11.4178 5.54874C11.1007 5.54618 10.7838 5.54618 10.4672 5.54874C10.4255 5.55158 10.3839 5.54424 10.3457 5.52735C10.3076 5.51046 10.2741 5.48453 10.2483 5.45181C10.1295 5.31059 10.0063 5.17258 9.88493 5.03392C9.19422 4.2358 8.50201 3.43896 7.80831 2.6434C7.72697 2.54145 7.62334 2.4595 7.50538 2.40386C7.38742 2.34822 7.25828 2.32037 7.12787 2.32244C6.69971 2.32757 6.31969 2.51502 5.92491 2.64789C5.80487 2.68769 5.79203 2.84047 5.87612 2.93676C5.90574 2.96937 5.93702 3.00044 5.96984 3.02984C6.82231 3.83909 7.675 4.64791 8.5279 5.45631C8.55872 5.48519 8.61521 5.5128 8.60108 5.55709C8.58311 5.61486 8.51828 5.59111 8.4727 5.59111C7.80317 5.59111 7.13429 5.59111 6.46476 5.59111M61 10.9768C60.9114 11.1219 60.7843 11.1739 60.6116 11.1726C59.7354 11.1662 58.8592 11.1726 57.983 11.1669C57.8546 11.1669 57.7968 11.1964 57.8019 11.3331C57.8064 11.4333 57.7801 11.534 57.7788 11.6348C57.7718 12.1195 58.0837 12.4443 58.5703 12.4796C59.0569 12.5149 59.5191 12.3807 59.9607 12.1753C60.2759 12.0296 60.3382 12.0469 60.5314 12.3422C60.6688 12.5515 60.7882 12.7646 60.6932 13.031C60.6417 13.1875 60.5321 13.3183 60.387 13.3963C59.7161 13.7512 58.9978 13.8546 58.2494 13.7891C57.897 13.7633 57.5532 13.6689 57.237 13.5112C56.4943 13.126 56.1227 12.4995 56.0874 11.6849C56.0578 11.0044 56.0719 10.3214 56.0835 9.63972C56.1021 8.47591 56.8936 7.62729 58.0735 7.48864C58.4931 7.43065 58.9195 7.4452 59.3342 7.53164C60.2753 7.74669 60.8395 8.36165 60.9756 9.31747C60.9807 9.3515 60.9904 9.38552 60.9981 9.41954L61 10.9768ZM58.63 10.1796C58.8765 10.1796 59.123 10.1796 59.3695 10.1796C59.4587 10.1796 59.4979 10.1475 59.4979 10.0563C59.4979 9.91575 59.4979 9.77517 59.4979 9.63458C59.4818 9.18524 59.2276 8.88546 58.7796 8.82833C58.2121 8.75579 57.7949 9.04787 57.7833 9.64935C57.7833 9.77773 57.7878 9.90612 57.7833 10.0345C57.7788 10.1629 57.8263 10.186 57.9387 10.1828C58.1717 10.177 58.4047 10.1828 58.6384 10.1828M22.0044 12.4584C22.0044 12.7665 22.0044 13.074 22.0044 13.3821C22.0044 13.592 21.8947 13.7146 21.6835 13.7198C21.3535 13.7275 21.0236 13.7275 20.6936 13.7198C20.5011 13.7153 20.3958 13.6081 20.3727 13.4194C20.3664 13.367 20.3636 13.3142 20.3643 13.2615C20.3643 10.9223 20.3643 8.58311 20.3643 6.24395C20.3643 6.17975 20.3701 6.1207 20.3759 6.05971C20.3817 5.97538 20.4137 5.89496 20.4675 5.8297C20.5212 5.76445 20.594 5.71762 20.6757 5.69574C21.3991 5.45502 22.1399 5.31059 22.9044 5.33049C23.5046 5.34782 24.0721 5.49097 24.5734 5.83633C25.1511 6.23239 25.4971 6.7838 25.5806 7.47066C25.6739 8.15569 25.6702 8.85044 25.5697 9.53444C25.4832 10.0469 25.232 10.5171 24.8541 10.8738C24.4762 11.2305 23.9923 11.4542 23.4757 11.5109C23.0168 11.5668 22.5616 11.5661 22.12 11.405C22.0218 11.3691 22.0064 11.4134 22.0064 11.4962C22.0064 11.8171 22.0064 12.1381 22.0064 12.459M22.0571 8.39118C22.0571 8.84823 22.0609 9.30464 22.0571 9.76169C22.0522 9.80891 22.0638 9.85638 22.0901 9.89596C22.1163 9.93553 22.1555 9.96477 22.2009 9.97866C22.4429 10.0884 22.6958 10.091 22.9519 10.0769C23.5521 10.0441 23.979 9.60441 23.979 9.00358C23.9758 8.55808 24.013 8.11259 23.9309 7.66709C23.8667 7.30954 23.7107 7.02966 23.3743 6.87303C22.9776 6.68816 22.5725 6.71191 22.1649 6.83516C22.0725 6.8634 22.0616 6.92503 22.0616 7.00719C22.0616 7.46809 22.0616 7.92964 22.0616 8.39118M50.2452 9.73665V6.23945C50.2452 5.8742 50.3274 5.76507 50.6721 5.65659C51.3487 5.44411 52.0387 5.31316 52.7494 5.32921C53.4343 5.34461 54.073 5.51601 54.6174 5.95701C54.853 6.14348 55.0493 6.37489 55.1949 6.6378C55.3405 6.90072 55.4324 7.18992 55.4653 7.48864C55.5542 8.1436 55.5542 8.80758 55.4653 9.46255C55.3055 10.5294 54.5891 11.2561 53.5203 11.4801C53.0284 11.5951 52.5144 11.5729 52.0343 11.4159C51.9174 11.3748 51.8905 11.4063 51.8911 11.5218C51.895 12.1246 51.8911 12.7274 51.8911 13.3295C51.8911 13.6126 51.7826 13.7243 51.506 13.7256C51.2293 13.7268 50.9423 13.7256 50.6605 13.7256C50.3787 13.7256 50.2529 13.6062 50.2497 13.316V9.73665H50.2452ZM51.9412 8.38861C51.9412 8.85015 51.9444 9.31234 51.9412 9.77388C51.937 9.81682 51.9475 9.8599 51.9707 9.89622C51.994 9.93253 52.0288 9.95998 52.0696 9.97416C52.3103 10.0878 52.5632 10.0923 52.82 10.0794C53.4292 10.0506 53.8547 9.61019 53.8605 9.00229C53.8605 8.70765 53.8605 8.41236 53.8605 8.11772C53.8537 7.88617 53.8155 7.65661 53.7469 7.43536C53.7147 7.31793 53.6574 7.20891 53.5789 7.11581C53.5005 7.02271 53.4027 6.94776 53.2924 6.89614C52.9015 6.69714 52.4958 6.71319 52.0837 6.82104C52.0614 6.82395 52.0399 6.83126 52.0205 6.84256C52.0011 6.85385 51.9841 6.8689 51.9705 6.88682C51.9569 6.90474 51.9471 6.92518 51.9415 6.94695C51.9359 6.96871 51.9347 6.99138 51.938 7.01361C51.9444 7.4713 51.938 7.92835 51.938 8.38605M26.4806 9.50042C26.4806 8.22471 26.4806 6.94899 26.4806 5.67328C26.4806 5.38377 26.5858 5.27593 26.8792 5.27785C27.0904 5.27785 27.3022 5.25988 27.5121 5.29518C27.666 5.3177 27.808 5.39081 27.9158 5.50297C28.0235 5.61513 28.0909 5.75997 28.1072 5.91464C28.1502 6.34024 28.1162 6.76776 28.1245 7.19399C28.1245 7.30826 28.1284 7.42252 28.1245 7.53678C28.1207 7.63371 28.1457 7.67479 28.2529 7.64462C28.5424 7.56908 28.8388 7.52284 29.1375 7.50661C30.2615 7.42188 31.1621 8.07985 31.4035 9.17561C31.461 9.42835 31.4903 9.68671 31.4908 9.94592C31.4908 11.077 31.4908 12.2074 31.4908 13.3378C31.4908 13.603 31.3791 13.7179 31.1165 13.723C30.9488 13.7256 30.7815 13.7256 30.6146 13.723C30.5128 13.7237 30.4119 13.7041 30.3178 13.6653C30.2237 13.6265 30.1382 13.5693 30.0665 13.4971C29.9948 13.4249 29.9382 13.3391 29.9 13.2447C29.8618 13.1504 29.8429 13.0493 29.8442 12.9476C29.8417 11.9885 29.8417 11.0297 29.8442 10.0711C29.8513 9.8817 29.8296 9.69233 29.7801 9.50941C29.6844 9.19872 29.4719 9.02733 29.1542 8.97918C28.861 8.94349 28.5637 8.96353 28.278 9.03824C28.156 9.06584 28.1181 9.12618 28.1188 9.24943C28.1226 10.5692 28.1226 11.8888 28.1188 13.2082C28.1188 13.2608 28.1188 13.3141 28.1188 13.3667C28.1014 13.6068 27.9904 13.7191 27.749 13.7224C27.4452 13.7262 27.1413 13.7262 26.8375 13.7224C26.5891 13.7224 26.4767 13.603 26.4767 13.3545C26.4767 12.0707 26.4767 10.7868 26.4767 9.50299M32.3503 10.5853C32.3651 10.2778 32.3234 9.87916 32.3715 9.48694C32.4877 8.53304 33.0134 7.91616 33.9295 7.64462C34.6675 7.41292 35.4623 7.4385 36.1839 7.71716C37.0267 8.04454 37.4677 8.6839 37.539 9.57874C37.591 10.2367 37.5634 10.8972 37.5563 11.5565C37.5493 12.2158 37.347 12.8198 36.8194 13.2692C36.4233 13.6068 35.9509 13.7628 35.445 13.8276C34.9021 13.9043 34.3488 13.8529 33.8293 13.6774C32.9268 13.3661 32.3638 12.5906 32.3529 11.6374C32.3484 11.3164 32.3529 10.9955 32.3529 10.5866M34.0822 10.6026C34.0822 10.9582 34.0777 11.2445 34.0822 11.5295C34.0919 12.0335 34.3281 12.3236 34.8159 12.3852C35.3937 12.459 35.895 12.2568 35.913 11.5546C35.9278 10.9704 35.9233 10.3856 35.913 9.80084C35.9046 9.32389 35.6562 9.01962 35.2351 8.93617C35.1088 8.9167 34.9805 8.9126 34.8532 8.92397C34.4379 8.94387 34.1567 9.20771 34.1021 9.61854C34.0566 9.96903 34.0951 10.3214 34.0803 10.6026M47.578 11.1694C47.1242 11.1694 46.671 11.1733 46.2171 11.1694C46.1029 11.1694 46.0554 11.2118 46.0515 11.319C46.047 11.4679 46.0066 11.6149 46.0271 11.7683C46.0823 12.1766 46.3821 12.4501 46.8026 12.4834C47.2917 12.522 47.7449 12.4013 48.1808 12.1933C48.5249 12.029 48.5935 12.0482 48.7983 12.3743C48.9351 12.5913 49.0487 12.814 48.9267 13.0804C48.8832 13.2019 48.7988 13.3045 48.6879 13.3706C47.6274 13.9066 46.5381 14.0125 45.4494 13.4913C44.7715 13.1703 44.4076 12.5746 44.3504 11.8312C44.2943 11.0373 44.2943 10.2404 44.3504 9.4465C44.4076 8.55294 44.9988 7.8449 45.891 7.59006C46.5032 7.40886 47.1544 7.40731 47.7674 7.58557C48.6019 7.82886 49.0788 8.40659 49.2169 9.25457C49.3016 9.78223 49.2714 10.3163 49.2618 10.8478C49.2573 11.0731 49.1334 11.172 48.9004 11.1726H47.578M46.8847 10.1828C47.1351 10.1828 47.3861 10.1828 47.6364 10.1828C47.7186 10.1828 47.7584 10.1558 47.7558 10.0685C47.752 9.93244 47.7597 9.79571 47.7526 9.66026C47.7289 9.19294 47.4715 8.88995 47.0228 8.83218C46.5593 8.7712 46.1157 8.95094 46.0348 9.53444C46.0104 9.70969 46.0284 9.88558 46.0207 10.0608C46.0162 10.1533 46.0567 10.1841 46.1459 10.1828C46.3924 10.1796 46.6382 10.1828 46.8847 10.1828ZM38.5057 10.7984C38.5057 9.97587 38.5057 9.15336 38.5057 8.33084C38.5057 8.05224 38.5969 7.93798 38.8607 7.85004C39.5194 7.62244 40.2109 7.50425 40.9078 7.50019C41.5837 7.50019 42.2334 7.6183 42.7694 8.07792C43.1995 8.44703 43.3985 8.93425 43.4845 9.47988C43.5082 9.65859 43.5178 9.83888 43.5134 10.0191C43.5134 11.1232 43.5134 12.2273 43.5134 13.3314C43.5134 13.6145 43.4081 13.7224 43.1218 13.7204C42.9067 13.7204 42.6904 13.7397 42.476 13.705C42.1185 13.6466 41.8867 13.3841 41.8854 13.022C41.8816 12.0848 41.8854 11.1482 41.8854 10.211C41.8906 10 41.8745 9.78906 41.8373 9.58131C41.7526 9.16983 41.4817 8.93938 41.0631 8.92077C40.8124 8.91147 40.5613 8.9263 40.3134 8.96506C40.185 8.98496 40.1497 9.04145 40.1503 9.1647C40.1533 10.5102 40.1533 11.8561 40.1503 13.2024C40.1503 13.255 40.1503 13.3083 40.1503 13.3603C40.1472 13.4433 40.112 13.5218 40.0521 13.5794C39.9923 13.637 39.9124 13.6691 39.8294 13.6691C39.4904 13.6755 39.1509 13.6761 38.8119 13.6691C38.6193 13.6652 38.5057 13.5349 38.5051 13.3308C38.5051 12.486 38.5051 11.6415 38.5051 10.7971" fill="#5F259F"/>
<path id="Vector_2" d="M9.1055 8.49507C9.1055 8.98358 9.10229 9.47144 9.1055 9.9593C9.11147 10.0067 9.0996 10.0547 9.0722 10.0938C9.04479 10.133 9.00381 10.1605 8.95721 10.1711C8.64373 10.2789 8.31099 10.3192 7.98085 10.2892C7.41916 10.236 7.10526 9.9041 7.05776 9.33471C7.01411 8.81218 7.04621 8.28902 7.03722 7.76585C7.03337 7.50908 7.03722 7.25616 7.03722 7.00132C7.03722 6.8954 7.07188 6.85239 7.18294 6.85303C7.77286 6.85689 8.36279 6.85817 8.95208 6.85303C9.08046 6.85303 9.10742 6.90503 9.10678 7.01865C9.10293 7.511 9.10678 8.00336 9.10678 8.49507" fill="#5F259F"/>
</g>
</svg>
