<svg width="42" height="15" viewBox="0 0 42 15" fill="none" xmlns="http://www.w3.org/2000/svg">
<g id="Group">
<path id="Vector" d="M32.8769 3.50465C33.0507 3.36566 33.1375 3.29617 33.2244 3.22668C34.4318 2.20167 35.978 2.3146 37.0117 3.53071C37.1159 3.65232 37.168 3.661 37.2723 3.55677C37.3418 3.47859 37.42 3.41778 37.4894 3.3396C38.2973 2.54913 39.3657 2.3146 40.3647 2.75761C41.4157 3.22668 41.9804 4.05189 41.9891 5.2072C42.0064 7.70022 41.9977 10.1846 41.9977 12.6776C41.9977 13.5636 41.4505 14.1195 40.5732 14.1195C40.2257 14.1195 39.8782 14.0935 39.5308 14.1282C39.1746 14.163 39.0704 14.05 39.0704 13.6765C39.0878 11.2443 39.0791 8.81209 39.0791 6.37987C39.0791 6.27564 39.0791 6.18008 39.0791 6.07585C39.0704 5.51123 38.8445 5.27669 38.306 5.25063C37.8195 5.22457 37.4808 5.51991 37.4286 6.01504C37.42 6.12797 37.4286 6.24958 37.4286 6.3625C37.4286 8.46463 37.4286 10.5581 37.4286 12.6602C37.4286 13.581 36.8988 14.1195 35.978 14.1109C35.5089 14.1022 34.8748 14.3193 34.6055 14.0153C34.371 13.7547 34.5274 13.138 34.5274 12.6776C34.5274 10.5233 34.5274 8.36039 34.5274 6.20614C34.5274 5.44173 34.0322 5.05084 33.3894 5.31144C32.9898 5.47648 32.8596 5.79788 32.8596 6.21483C32.8682 8.2301 32.8596 10.2367 32.8596 12.2519C32.8596 12.4083 32.8596 12.5733 32.8596 12.7297C32.8335 13.5723 32.2949 14.1022 31.461 14.1109C31.1136 14.1195 30.7661 14.0848 30.4186 14.1195C30.0451 14.1543 29.9322 14.05 29.9409 13.6505C29.9583 10.2367 29.9496 6.82289 29.9496 3.40041C29.9496 3.25274 29.9583 3.11375 29.9496 2.96608C29.9322 2.77498 30.0104 2.71418 30.2015 2.71418C31.0006 2.72286 31.7911 2.72286 32.5903 2.71418C32.7901 2.71418 32.8856 2.76629 32.8682 2.98346C32.8509 3.13981 32.8682 3.2788 32.8769 3.50465Z" fill="#02B9EF"/>
<path id="Vector_2" d="M14.4618 8.21277C14.4618 9.40282 14.4618 10.5842 14.4618 11.7742C14.4531 13.3204 13.6453 14.1196 12.0991 14.1283C11.4215 14.1283 10.7353 14.137 10.0577 14.1283C8.68528 14.1109 7.67765 13.1988 7.60816 11.8264C7.55604 10.8448 7.54735 9.85452 7.59947 8.87295C7.66896 7.46574 8.74609 6.47548 10.1707 6.4581C10.5442 6.44942 10.9264 6.4581 11.2999 6.4581C11.6647 6.44942 11.8037 6.24094 11.795 5.89348C11.795 5.54602 11.6387 5.38967 11.2912 5.40704C10.9003 5.41573 10.5094 5.41573 10.1186 5.40704C9.16304 5.38967 8.63316 4.86848 8.64185 3.93034C8.64185 3.54813 8.46812 3.03563 8.72003 2.80978C8.93719 2.61867 9.43232 2.74029 9.80584 2.74029C10.7787 2.7316 11.7429 2.74029 12.7158 2.74029C13.7495 2.74029 14.4531 3.44389 14.4618 4.48627C14.4705 5.71975 14.4618 6.97061 14.4618 8.21277ZM11.8037 10.1846C11.8037 10.0369 11.8037 9.89795 11.8037 9.75028C11.8037 8.86426 11.8037 8.86426 10.9177 8.89901C10.4747 8.91638 10.2315 9.14223 10.2228 9.60261C10.2141 9.96744 10.2141 10.3236 10.2228 10.6884C10.2315 11.3139 10.5094 11.4789 11.4128 11.505C12.0817 11.5223 11.7429 11.0533 11.8037 10.7927C11.8385 10.6016 11.795 10.3844 11.8037 10.1846Z" fill="#06306F"/>
<path id="Vector_3" d="M22.1927 7.26596C22.1927 8.59499 22.21 9.93271 22.184 11.2617C22.1666 12.2867 21.9234 13.2162 20.9331 13.7635C20.5336 13.9806 20.0992 14.1022 19.6475 14.1109C18.6486 14.1283 17.6496 14.1109 16.6507 14.1283C16.4075 14.1283 16.3554 14.0414 16.364 13.8243C16.3814 13.4594 16.3554 13.1033 16.3727 12.7384C16.3901 12.0435 16.92 11.5137 17.6149 11.4876C18.0666 11.4702 18.5096 11.4789 18.9613 11.4876C19.3261 11.4876 19.5259 11.3399 19.5259 10.949C19.5259 10.5495 19.3348 10.4105 18.97 10.4018C18.3619 10.3844 17.7539 10.4713 17.1545 10.2975C16.1208 9.99352 15.3651 9.13355 15.339 8.06512C15.2869 6.37125 15.3217 4.67738 15.313 2.98352C15.313 2.79242 15.3738 2.73161 15.5649 2.7403C16.2772 2.74898 16.9808 2.75767 17.6931 2.7403C18.0058 2.73161 17.9624 2.90534 17.9624 3.09644C17.9624 4.37336 17.9624 5.64159 17.9624 6.9185C17.9624 7.47443 18.223 7.76977 18.7094 7.78715C19.2827 7.80452 19.5346 7.56998 19.5346 6.98799C19.5346 5.70239 19.5433 4.4081 19.5259 3.1225C19.5259 2.81848 19.6041 2.73161 19.9081 2.7403C20.5422 2.76636 21.185 2.77504 21.8192 2.7403C22.1666 2.72292 22.2187 2.85322 22.21 3.15725C22.184 4.52103 22.1927 5.89349 22.1927 7.26596Z" fill="#06306F"/>
<path id="Vector_4" d="M0.0594638 9.23778C0.0594638 7.82188 0.0594638 6.39729 0.0594638 4.9814C0.0594638 3.59156 0.91074 2.72291 2.30926 2.74028C3.22135 2.74897 4.13343 2.63604 5.03682 2.80977C6.19213 3.03562 6.92179 3.93033 6.93048 5.12038C6.93916 6.37992 6.93048 7.63946 6.93048 8.899C6.93048 10.4799 6.00102 11.4441 4.42008 11.4876C3.94232 11.505 3.46457 11.4963 2.98681 11.4876C2.76965 11.4789 2.6741 11.5484 2.68278 11.7829C2.70016 12.1304 2.69147 12.4778 2.68278 12.8253C2.66541 13.5723 2.13553 14.1109 1.39718 14.1196C0.962858 14.1283 0.415609 14.302 0.137642 14.0501C-0.122953 13.8156 0.0681503 13.2596 0.0594638 12.8427C0.0507773 11.6439 0.0594638 10.4365 0.0594638 9.23778ZM2.68278 7.10959C2.68278 7.38755 2.68278 7.65684 2.68278 7.9348C2.68278 8.91638 2.68278 8.91638 3.66436 8.82951C4.08999 8.79476 4.28978 8.58629 4.29847 8.16065C4.30716 7.67421 4.2811 7.17908 4.30716 6.69263C4.35928 5.28542 4.09868 5.42441 2.95206 5.41572C2.74359 5.41572 2.6741 5.47652 2.6741 5.685C2.69147 6.15407 2.68278 6.63183 2.68278 7.10959Z" fill="#06306F"/>
<path id="Vector_5" d="M24.6509 9.25514C24.6509 8.09984 24.6422 6.93585 24.6596 5.78055C24.6596 5.51126 24.5988 5.39834 24.3034 5.40703C23.9125 5.4244 23.3914 5.53732 23.1742 5.34622C22.9049 5.09431 23.1134 4.55575 23.0786 4.1388C23.0786 4.11274 23.0786 4.07799 23.0786 4.05194C23.0786 3.64367 22.9483 3.16591 23.1221 2.86189C23.2958 2.55786 23.8257 2.74896 24.1992 2.65341C24.9376 2.46231 25.4935 2.03667 25.9452 1.44599C26.2579 1.04641 26.6488 0.759756 27.1526 0.664204C27.4219 0.612085 27.5869 0.646832 27.5696 0.994291C27.5435 1.48073 27.5696 1.97586 27.5609 2.47099C27.5522 2.67947 27.6304 2.74896 27.8388 2.74027C28.1863 2.73159 28.5338 2.74896 28.8812 2.73159C29.0897 2.7229 29.1592 2.80108 29.1505 3.00956C29.1418 3.72185 29.1418 4.42545 29.1505 5.13775C29.1505 5.33754 29.0984 5.44177 28.8812 5.41572C28.8378 5.40703 28.7944 5.41572 28.7509 5.41572C28.3687 5.45046 27.8388 5.24199 27.6391 5.50258C27.4479 5.7458 27.5696 6.24962 27.5696 6.64051C27.5696 9.00323 27.5609 11.3573 27.5782 13.72C27.5782 14.0501 27.4914 14.1543 27.1613 14.1283C26.8486 14.1022 26.5272 14.1283 26.2058 14.1196C25.2676 14.0848 24.6509 13.4507 24.6509 12.5126C24.6509 11.4268 24.6509 10.341 24.6509 9.25514Z" fill="#02B9EF"/>
</g>
</svg>
