<svg width="37" height="38" viewBox="0 0 37 38" fill="none" xmlns="http://www.w3.org/2000/svg">
<g id="Google Pay" clip-path="url(#clip0_95_400)">
<path id="Vector" d="M16.8306 18.2231V22.7001H15.4092V11.6417H19.177C19.6269 11.6319 20.0743 11.7114 20.4932 11.8758C20.9121 12.0401 21.2943 12.286 21.6175 12.5991C22.2788 13.1941 22.6504 14.0451 22.6365 14.9331C22.6462 15.3749 22.5602 15.8135 22.3843 16.2188C22.2084 16.6241 21.9468 16.9865 21.6175 17.2811C20.9576 17.9101 20.1436 18.2246 19.177 18.2231H16.8306ZM16.8306 13.003V16.8648H19.2125C19.7413 16.8803 20.25 16.6737 20.6185 16.2929C21.3646 15.5683 21.3831 14.3735 20.6555 13.6273L20.6185 13.5903C20.439 13.3985 20.2209 13.247 19.9785 13.1457C19.7362 13.0445 19.475 12.9958 19.2125 13.003H16.8306ZM25.911 14.8869C26.9624 14.8869 27.7903 15.1675 28.3977 15.7286C29.0051 16.2898 29.3088 17.0606 29.3088 18.0365V22.7016H27.9506V21.6502H27.889C27.3001 22.5151 26.5169 22.9483 25.541 22.9483C24.707 22.9483 24.0101 22.7016 23.449 22.2067C23.1799 21.9797 22.9648 21.6956 22.8192 21.3751C22.6736 21.0546 22.6012 20.7056 22.6072 20.3536C22.6072 19.5705 22.9032 18.9476 23.4952 18.4851C24.0872 18.0226 24.8766 17.7898 25.8663 17.7898C26.7096 17.7898 27.4049 17.944 27.9506 18.2523V17.9271C27.9524 17.6871 27.9005 17.4498 27.7989 17.2324C27.6973 17.0151 27.5485 16.8231 27.3633 16.6706C26.9875 16.3313 26.4975 16.1463 25.9912 16.1526C25.1988 16.1526 24.5698 16.4871 24.1073 17.1562L22.857 16.3684C23.543 15.3802 24.5621 14.8869 25.911 14.8869ZM24.0718 20.3845C24.0711 20.5651 24.1134 20.7434 24.1951 20.9045C24.2769 21.0656 24.3958 21.2049 24.542 21.311C24.8565 21.5577 25.2466 21.6903 25.6458 21.681C26.2456 21.6795 26.8204 21.4406 27.2446 21.0166C27.7148 20.5726 27.9506 20.0546 27.9506 19.4564C27.5066 19.1033 26.89 18.9261 26.0976 18.9261C25.521 18.9261 25.0384 19.0648 24.653 19.3438C24.2661 19.6291 24.0718 19.9728 24.0718 20.3845ZM37.1097 15.1336L32.366 26.0378H30.8998L32.6604 22.2221L29.5386 15.1336H31.0833L33.3388 20.5695H33.3696L35.5634 15.1336H37.1097Z" fill="#5F6368"/>
<path id="Vector_2" d="M12.4549 18.5375C12.4549 18.1043 12.4195 17.6726 12.3455 17.2456H6.35303V19.6922H9.78478C9.71473 20.083 9.56618 20.4555 9.34811 20.7873C9.13003 21.119 8.84695 21.4031 8.51599 21.6224V23.2119H10.5649C11.7643 22.108 12.4549 20.4723 12.4549 18.5375Z" fill="#4285F4"/>
<path id="Vector_3" d="M6.35317 24.7473C8.06751 24.7473 9.51205 24.1846 10.565 23.2133L8.51613 21.6238C7.94572 22.0108 7.21188 22.2313 6.35317 22.2313C4.69588 22.2313 3.28988 21.1136 2.78576 19.6089H0.676758V21.2461C1.20531 22.2986 2.01607 23.1834 3.01848 23.8017C4.02088 24.4199 5.17544 24.7473 6.35317 24.7473Z" fill="#34A853"/>
<path id="Vector_4" d="M2.78741 19.609C2.52073 18.82 2.52073 17.9652 2.78741 17.1762V15.5405H0.676872C0.232111 16.426 0.000488281 17.4032 0.000488281 18.3942C0.000488281 19.3851 0.232111 20.3623 0.676872 21.2478L2.78741 19.609Z" fill="#FBBC04"/>
<path id="Vector_5" d="M6.35317 14.5554C7.25916 14.5409 8.13455 14.8831 8.79055 15.5082L10.6051 13.6952C9.45437 12.6155 7.93098 12.0223 6.35317 12.0394C5.17544 12.0394 4.02088 12.3668 3.01848 12.985C2.01607 13.6033 1.20531 14.4881 0.676758 15.5405L2.7873 17.1778C3.28988 15.6716 4.69588 14.5554 6.35317 14.5554Z" fill="#EA4335"/>
</g>
<defs>
<clipPath id="clip0_95_400">
<rect width="37" height="37" fill="white" transform="translate(0 0.5)"/>
</clipPath>
</defs>
</svg>
